<svg xmlns="http://www.w3.org/2000/svg" viewBox="0 0 133.62 153.62"><defs><style>.cls-1{fill:#fff;}.cls-2{fill:#1d1d1b;}.cls-3{fill:#e1be81;}.cls-4{fill:#c59976;}.cls-5{fill:#e1c38e;}.cls-6{fill:#ca9877;}</style></defs><title>logomin</title><g id="Слой_2" data-name="Слой 2"><g id="Слой_1-2" data-name="Слой 1"><path class="cls-1" d="M35.81,102.78c-1.6,1.39-1.13,1.48-5.84,6.34s-7,6.62-8.16,10.33c-.49,1.51-1.35,4.23,0,6,2,2.68,7.62,1.19,8.33,1,6.43-1.72,9.7-7.83,10.67-9.83-2.07,6.63-.42,10.08.33,11.33,4.21,7,18.85,8.72,35.5,1-.17-3.67-.33-7.33-.5-11a31.26,31.26,0,0,0,2.33,5.67,21.23,21.23,0,0,0,5,6.66c2.08,1.78,4.17,3.57,6.84,3.17A5.86,5.86,0,0,0,95,129.62c.69-2.33-.82-4.58-1.83-6.17-7-10.91-4.64-12.19-9-16.5s-9.37-5.56-16-7.17C62.63,98.45,45.59,94.34,35.81,102.78Z"/><path class="cls-2" d="M55.81,135.54c-7.36,0-13.24-2.3-16-6.82a11.48,11.48,0,0,1-1.54-5.7,16.24,16.24,0,0,1-7.78,4.88c-2.19.58-7.52,1.6-9.92-1.54-1.82-2.39-.79-5.63-.23-7.36,1.09-3.42,3-5.39,6.29-8.66l2.23-2.27c2.54-2.62,3.53-3.82,4.19-4.61a12.07,12.07,0,0,1,1.74-1.81h0c10.37-9,27.9-4.72,33.66-3.32,6.7,1.62,12,2.89,16.7,7.55A14.32,14.32,0,0,1,89,112.11a49.59,49.59,0,0,0,5.37,10.53l.09.14c1.11,1.73,2.78,4.34,1.92,7.26a7.32,7.32,0,0,1-5.88,4.89c-3.34.5-5.83-1.63-8-3.51a20.2,20.2,0,0,1-4.5-5.55l.14,3a1.5,1.5,0,0,1-.87,1.43A52.39,52.39,0,0,1,55.81,135.54Zm-15-20.42a1.52,1.52,0,0,1,.55.1,1.5,1.5,0,0,1,.88,1.84c-1.3,4.17-1.23,7.76.18,10.12,3.63,6,16.76,7.9,32.67.82l-.45-10a1.5,1.5,0,0,1,2.94-.5,28.45,28.45,0,0,0,2.22,5.39,19.7,19.7,0,0,0,4.65,6.23c2,1.68,3.65,3.12,5.63,2.83a4.37,4.37,0,0,0,3.45-2.78c.48-1.6-.66-3.37-1.57-4.79l-.08-.14a52.31,52.31,0,0,1-5.66-11.09A11.38,11.38,0,0,0,83.08,108c-4.12-4.08-8.81-5.21-15.29-6.78-5.39-1.3-21.8-5.26-31,2.68h0a9.58,9.58,0,0,0-1.39,1.46c-.69.83-1.73,2.07-4.35,4.78-.82.85-1.57,1.6-2.25,2.29-3.13,3.15-4.7,4.73-5.57,7.46-.38,1.22-1.11,3.48-.23,4.63s4.1,1.17,6.75.46c5.34-1.42,8.37-6.27,9.7-9A1.51,1.51,0,0,1,40.81,115.12Z"/><polygon class="cls-1" points="103.25 153.62 102.61 124 13.61 124 12.98 153.62 103.25 153.62"/><path class="cls-2" d="M14.48,153.62l.6-28.12h86.07l.6,28.12h3L104.11,124a1.49,1.49,0,0,0-1.5-1.46h-89a1.5,1.5,0,0,0-1.5,1.46l-.63,29.66Z"/><rect class="cls-2" x="41.75" y="123.77" width="3" height="29.86"/><path d="M21.5,122.39a.5.5,0,0,0,0-1,.5.5,0,0,0,0,1Z"/><path d="M76.19,123.14a.5.5,0,0,0,0-1,.5.5,0,0,0,0,1Z"/><path class="cls-3" d="M17.92,153.62H37.17q.55-14.2,1.12-28.43c-6.13-1.67-16.76-3.85-20.5,1-1.66,2.16-.72,4.08-.25,11C17.87,142.05,17.87,147.89,17.92,153.62Z"/><path class="cls-4" d="M37.72,125.52c-.74,0-1.46,0-2.19,0a4.92,4.92,0,0,1-2.09-.09L32.3,125a4.79,4.79,0,0,1-2.19-2.85,0,0,0,0,1,0,0c-4.36.63-9.28,3-11.43,6.71-1.76,3.06-1.84,7.33-2,15.75,0,1.45,0,2.66,0,3.5.87.2,2.16.48,3.75.75,5.1.86,7.69,1.27,9.5,0,1.65-1.15,2-3.22,2.25-4.5,2.06-10.77,5.77-15.75,5.9-18.77Z"/><polygon class="cls-1" points="13 123.77 37.33 123.77 27 144.27 1.5 144.27 13 123.77"/><path class="cls-2" d="M27,145.77H1.5A1.48,1.48,0,0,1,.21,145a1.51,1.51,0,0,1,0-1.5L11.69,123a1.51,1.51,0,0,1,1.31-.76H37.33a1.51,1.51,0,0,1,1.28.71,1.49,1.49,0,0,1,.06,1.46l-10.33,20.5A1.5,1.5,0,0,1,27,145.77Zm-22.94-3h22l8.82-17.5h-21Z"/><path class="cls-5" d="M97.93,153.62V128.57l-48.37-3.81a4.87,4.87,0,0,1-2.41.7H45.88q1.45,14.08,2.93,28.16Z"/><path class="cls-6" d="M98.1,139.38c-2.21-7-10.37-11.57-19.46-14.14a4.51,4.51,0,0,1-4.23-.11c-2.69-1.43-6.84-.15-9.75,0-4.29.21-8.61,0-12.9-.16a2.85,2.85,0,0,1-.41,0,4.45,4.45,0,0,1-2,.53H48.24c-.14.46.27.64,2.08,5.34s2.69,7,3.53,9.78c.68,2.28.74,2.85,1.43,3.68,1.84,2.24,5,2.51,6.55,2.62,5.19.36,18.45.88,36.23,1.11A15.1,15.1,0,0,0,98.1,139.38Z"/><polygon class="cls-1" points="49.5 124 103.92 124 118.61 143 59.17 143 49.5 124"/><path class="cls-2" d="M118.6,144.5H59.17a1.51,1.51,0,0,1-1.34-.82l-9.67-19a1.54,1.54,0,0,1,.06-1.47,1.51,1.51,0,0,1,1.28-.71h54.42a1.48,1.48,0,0,1,1.19.58l14.68,19a1.5,1.5,0,0,1-1.19,2.42Zm-58.51-3h55.46l-12.36-16H52Z"/><path d="M78,121l-.29-.6c-.25-.51-1.12-.15-.91.38s.44.86,1,.79a.71.71,0,0,0,.59-.91l-1,.26a1.2,1.2,0,0,0,.36.55.52.52,0,0,0,.79-.1.55.55,0,0,0,.11-.43c-.07-.63-1.07-.63-1,0l0-.08.78-.1-.11-.1c-.23-.59-1.17-.36-1,.26l.36-.4-.91.38.29.6c.28.58,1.15.07.86-.5Z"/><path d="M92.34,121.49c-.46-.5-1.35-1.6-2-.69l.79-.1a.71.71,0,0,0-.61-.24c-.62.09-.63,1.09,0,1l-.1-.06a.49.49,0,0,0,.78-.1l.07-.09-.3.23c-.21-.07-.22,0,0,.1a1.8,1.8,0,0,1,.2.19c.16.15.31.31.46.46.43.48,1.14-.23.7-.7Z"/><path class="cls-2" d="M22.08,121.41l-.11,0c-.62-.21-.88.76-.27,1a1,1,0,0,0,.38.06.5.5,0,0,0,0-1Z"/><path class="cls-1" d="M48,57A82.74,82.74,0,0,1,38,43.66a78.68,78.68,0,0,1-8.33-19C27.85,18.1,24.06,4.7,28.38,2,32.53-.61,42.2,8,46.71,12S59.85,23.88,64,37.33A52,52,0,0,1,66.38,52Z"/><path class="cls-2" d="M47.56,58.68,46.94,58A84.07,84.07,0,0,1,36.76,44.44a80.34,80.34,0,0,1-8.49-19.37C25.39,14.89,22.72,3.77,27.58.73S40.44,4.41,47.71,10.87c4.33,3.86,13.36,11.89,17.76,26A53.42,53.42,0,0,1,67.88,52v1.17ZM30.3,3a2,2,0,0,0-1.13.29c-3.36,2.11.66,16.31,2,21a78,78,0,0,0,8.18,18.64,81.44,81.44,0,0,0,9.2,12.42l16.32-4.45a50.22,50.22,0,0,0-2.24-13.08c-4.16-13.33-12.76-21-16.9-24.66C38.14,6.38,33,3,30.3,3Z"/><path class="cls-1" d="M80.29,54.38a76.43,76.43,0,0,1,13-15c7.84-7,13-8.53,14.67-9,3-.83,6.05-1.67,9.33-.67,6.41,2,9.16,9.63,11,15,5.43,15.81,5.17,36.63-1.33,38.67-2.59.81-5.59-1.56-7-2.67-2-1.61-3.54-3.77-8-14.67-2.24-5.46-2.48-6.44-3.67-7-3.47-1.63-9.39,3-15.66,9.67Z"/><path class="cls-2" d="M125.83,85.05c-2.8,0-5.42-2.08-6.8-3.16-2.4-1.9-4-4.49-8.46-15.28l-.81-2c-1.37-3.39-1.65-4-2.11-4.22-1.07-.5-4.58-.61-13.93,9.34L92.58,71,78.41,54.49l.63-.94A78,78,0,0,1,92.3,38.25c3.82-3.38,9.57-7.75,15.26-9.32,3-.84,6.47-1.79,10.17-.65,7.27,2.22,10.22,10.81,12,15.94,4.51,13.15,5.23,29.68,1.59,36.86a6.82,6.82,0,0,1-3.89,3.73A5.46,5.46,0,0,1,125.83,85.05ZM106.74,57.21a5,5,0,0,1,2.19.48c1.55.73,2,1.8,3.61,5.8l.81,2c4.57,11.17,5.9,12.77,7.54,14.06,1.13.9,3.78,3,5.62,2.41a4.24,4.24,0,0,0,2.12-2.21c3.26-6.45,2.45-22.26-1.76-34.53-1.67-4.89-4.21-12.28-10-14.06-2.86-.87-5.6-.12-8.49.68-5.14,1.42-10.49,5.5-14.07,8.68A74.32,74.32,0,0,0,82.18,54.27l10.5,12.21C98.75,60.23,103.31,57.21,106.74,57.21Z"/><path class="cls-1" d="M25.71,80.83c.81-6.31,4.92-10.4,9.33-14.67,6.15-5.95,19.18-18.55,37-15.33,19.06,3.45,27,22,27.67,23.67,1.5,3.68,6.76,16.56.33,27.33-7.52,12.6-25.29,12.65-32,12.67-4.62,0-17.9-.15-29.33-9.67C35.64,102.27,24.17,92.72,25.71,80.83Z"/><path class="cls-2" d="M67.88,116c-12,0-22.15-3.37-30.13-10C27.68,97.6,23.13,89.07,24.22,80.64h0c.9-7,5.41-11.33,9.78-15.56C40.4,58.89,53.73,46,72.31,49.35,92,52.91,100.22,71.79,101.1,73.93c4.67,11.45,4.75,21.1.23,28.67C93.37,115.93,75,116,68.05,116ZM66.33,51.81C52,51.81,41.47,62,36.09,67.24,31.91,71.28,28,75.1,27.2,81h0c-.95,7.35,3.24,15,12.47,22.66C47.1,109.86,56.59,113,67.88,113H68c6.46,0,23.62-.06,30.71-11.94,4-6.72,3.87-15.46-.43-26-.81-2-8.44-19.48-26.55-22.75A30.33,30.33,0,0,0,66.33,51.81Z"/><path class="cls-2" d="M62.37,73.25A1.49,1.49,0,0,1,61,72.36a4.56,4.56,0,0,0-2.68-2.42,4.34,4.34,0,0,0-2.79.2,5.06,5.06,0,0,0-2.39,2,1.5,1.5,0,1,1-2.55-1.58,8,8,0,0,1,3.85-3.23,7.29,7.29,0,0,1,4.72-.3,7.5,7.5,0,0,1,4.57,4.08,1.51,1.51,0,0,1-1.36,2.12Z"/><path class="cls-2" d="M84.89,82.52l-.23,0a1.51,1.51,0,0,1-1.26-1.71,5.06,5.06,0,0,0-1.13-4,5.11,5.11,0,0,0-3.5-1.52,5.94,5.94,0,0,0-2.59.4,1.5,1.5,0,1,1-1.09-2.79,8.87,8.87,0,0,1,3.9-.6,7.94,7.94,0,0,1,5.5,2.48,8.05,8.05,0,0,1,1.88,6.49A1.52,1.52,0,0,1,84.89,82.52Z"/><path class="cls-2" d="M63.39,88c-1.21-.36-2-1.92-2.14-3.33a3.94,3.94,0,0,1,.92-3c1.63-1.52,5.14-.31,5.64,1.67S65.52,88.69,63.39,88Z"/><path class="cls-2" d="M81.11,95.48a6.18,6.18,0,0,0-2-3.1L78,91.44l-1,1.12a9.58,9.58,0,0,1-3.46,2.6c-2.67,1.18-4.9,1.26-6.65.25a5.67,5.67,0,0,1-2.35-2.75,5.54,5.54,0,0,1-.24-3.07,9.4,9.4,0,0,0,.81-2.23l.78-3.6A4.27,4.27,0,0,1,64.17,83l-1.82,3.27a9.42,9.42,0,0,0-.87,2.23A4.69,4.69,0,0,1,60,90.12c-1.4.92-2.91.76-4.52.59s-3.29-.34-4.56-1.7a6.63,6.63,0,0,1-1.46-3.28,8.7,8.7,0,0,1-.14-2.55l.19-2-2,.42a11,11,0,0,0-3.09,1.16A11.27,11.27,0,0,0,41.54,85a1.5,1.5,0,0,0,2.24,2,8.18,8.18,0,0,1,2.11-1.69l.45-.23a10,10,0,0,0,.19,1.22,9.45,9.45,0,0,0,2.2,4.72c2,2.17,4.68,2.45,6.44,2.64a9.32,9.32,0,0,0,6.28-1,8.16,8.16,0,0,0,.31,1A8.62,8.62,0,0,0,65.41,98c2.62,1.52,5.76,1.49,9.35-.09a12.56,12.56,0,0,0,3.29-2.11,2.75,2.75,0,0,1,.16.46,3,3,0,0,1,0,1.56,1.5,1.5,0,0,0,1.07,1.83,1.31,1.31,0,0,0,.38.06,1.5,1.5,0,0,0,1.45-1.12A6.07,6.07,0,0,0,81.11,95.48Z"/><path d="M40.28,117.61l-.55-.52c-.46-.44-1.17.27-.7.71l.54.52c.47.45,1.17-.26.71-.71Z"/><path class="cls-5" d="M20,125.25l.31.25c4.68,3.54,11.13-5,12.44-3.12.69,1,0,5-6.78,18.54a8.2,8.2,0,0,1-4.87-.38c-2.69-1.08-3.28-2.94-5.84-3.69-3-.87-4.58.91-5.08-.08s.25-3.62,5.17-11.51"/><path class="cls-5" d="M55.5,125.5l9.78,13.82,37.13-.3a8.16,8.16,0,0,0,1.73-.89,7.76,7.76,0,0,0,2.12-2.13l-5.64-10.48Z"/><path class="cls-2" d="M109.74,64.64a65,65,0,0,1-2.16-12.2c-.14-1.66-.2-3.23-.22-4.72.37.92.73,1.86,1.08,2.83a111.2,111.2,0,0,1,3.62,11.93Z"/><path class="cls-6" d="M77,126.83c-.91,1.89,1.26,4.28,2.59,5.74a14.84,14.84,0,0,0,9.08,4.73c1.08.14,7,.93,9.33-1.76s-.11-7.3-3.5-9.59C88.81,122.09,78.54,123.61,77,126.83Z"/><path class="cls-1" d="M38.56,117c-.06-.06-.11-.13-.17-.2a3.69,3.69,0,0,1-.79.57,8.27,8.27,0,0,1-3,1s-.76.16-1,.18a1.34,1.34,0,0,1-.26.08h0l-.13.08-.73.44,0,0c-.16.17-.34.33-.5.5a4.77,4.77,0,0,1-6.05.54l-.26.33a4.64,4.64,0,0,1-3.38,1.4,3.45,3.45,0,0,1-1.06-.11,4.66,4.66,0,0,0,.62,3.6c2,2.68,7.62,1.19,8.33,1,5.3-1.42,8.45-5.81,9.93-8.44A5.7,5.7,0,0,1,38.56,117Z"/><path class="cls-1" d="M91.76,121.23c-2.28.43-4.52.1-7.13-.1a40.61,40.61,0,0,0-7.38-.07c.34.8.74,1.67,1.22,2.58a21.23,21.23,0,0,0,5,6.66c2.08,1.78,4.17,3.57,6.84,3.17A5.88,5.88,0,0,0,95,129.64c.69-2.33-.82-4.58-1.83-6.17C92.63,122.67,92.18,121.93,91.76,121.23Z"/><path class="cls-2" d="M38.8,117.23c-1.56,2.79-4.45,6.56-9,7.79-2.65.71-5.76.84-6.75-.46a3.44,3.44,0,0,1-.3-2.63,3.44,3.44,0,0,1-.45,0,4.28,4.28,0,0,1-2.48-.72,6.26,6.26,0,0,0,.84,5.12c2.4,3.14,7.73,2.12,9.92,1.54a15.86,15.86,0,0,0,6.93-4,41.2,41.2,0,0,1,3.1-5.67A5.5,5.5,0,0,1,38.8,117.23Z"/><path class="cls-2" d="M78.3,126.4a20,20,0,0,0,4.2,5c2.2,1.88,4.69,4,8,3.51a7.32,7.32,0,0,0,5.88-4.89c.86-2.92-.81-5.53-1.92-7.26l-.09-.14c-.41-.65-.79-1.26-1.14-1.84a11.31,11.31,0,0,1-3.13.6c.51.87,1.08,1.82,1.75,2.86l.08.14c.91,1.42,2.05,3.19,1.57,4.79A4.36,4.36,0,0,1,90.08,132c-2,.29-3.67-1.15-5.63-2.83a19.81,19.81,0,0,1-4.65-6.23c-.35-.65-.67-1.32-1-2a16.28,16.28,0,0,0-2.3.23,5.44,5.44,0,0,1,.21,2.8,4.47,4.47,0,0,1,.8,1.18"/><path d="M91.3,121.3l.06.32.73-.57-1.1-.47c-.59-.25-1.1.61-.51.86l1.11.48a.51.51,0,0,0,.73-.57l0-.32c-.11-.63-1.07-.36-1,.27Z"/><path d="M78.38,124.91a.5.5,0,0,0,0-1,.5.5,0,0,0,0,1Z"/><path d="M76.5,121.29l.61.52a.5.5,0,0,0,.84-.48l-.12-.79L77,121l.34.38a.51.51,0,0,0,.86-.36l0-.35-.86.36a.63.63,0,0,0,1.14-.5l-1,.27.09.39c.14.62,1.1.36,1-.27l-.08-.39c-.14-.64-1.06-.36-1,.27l0,.06.12-.48.1,0,.39,0-.09-.06a.5.5,0,0,0-.85.35l0,.35.85-.35-.34-.38c-.38-.4-.91,0-.84.49l.11.78.84-.48-.61-.53c-.49-.41-1.2.29-.71.71Z"/><path d="M20.63,121.25v1.5c0,.67.92.62,1,0a3.3,3.3,0,0,1,.48-1.31l-.93-.25a2.48,2.48,0,0,1-.05.86l1,.13a1.18,1.18,0,0,1,.24-.75l-.91-.12a.37.37,0,0,1-.07.41l.94.25.07-.72c.07-.64-.93-.64-1,0l-.07.72c-.06.54.68.62.93.25a1.35,1.35,0,0,0,.17-1.17.51.51,0,0,0-.92-.12,2,2,0,0,0-.38,1.25.51.51,0,0,0,1,.14,3.32,3.32,0,0,0,.08-1.13.5.5,0,0,0-.93-.25,4.34,4.34,0,0,0-.62,1.81h1v-1.5a.5.5,0,0,0-1,0Z"/><path d="M40.21,119.16v-1.85a.51.51,0,0,0-.85-.36,1,1,0,0,1-.3.26l.75.43v-.23c0-.64-1-.64-1,0v.23a.5.5,0,0,0,.75.43,2,2,0,0,0,.51-.41l-.86-.35v1.85a.5.5,0,0,0,1,0Z"/><path d="M38.21,125.41a.5.5,0,0,0,0-1,.5.5,0,0,0,0,1Z"/><path d="M38.13,125.5a.5.5,0,0,0,0-1,.5.5,0,0,0,0,1Z"/><path d="M45.38,125.41h3.83a.5.5,0,0,0,0-1H45.38a.5.5,0,0,0,0,1Z"/><path d="M49.29,124.5H43.63a.5.5,0,0,0,0,1h5.66a.5.5,0,0,0,0-1Z"/></g></g></svg>